<svg width="32" height="32" viewBox="0 0 32 32" fill="none" xmlns="http://www.w3.org/2000/svg">
<circle cx="16" cy="16" r="16" fill="#37A203"/>
<path fill-rule="evenodd" clip-rule="evenodd" d="M16.7958 6.63806C16.7958 6.6667 16.7945 6.695 16.7918 6.72289C17.1553 7.00755 17.4339 7.43808 17.6416 7.87284C17.9639 8.54717 18.1605 9.32275 18.2522 9.88013H21.906C22.9259 9.88013 23.7675 10.6435 23.8905 11.6301H8.10922C8.23225 10.6435 9.07385 9.88013 10.0938 9.88013H13.7295C13.7359 9.76392 13.7477 9.63849 13.7646 9.50705C13.8178 9.0951 13.9238 8.61172 14.0883 8.15204C14.2517 7.69524 14.4789 7.2446 14.7834 6.9132C14.9089 6.77672 15.0501 6.65804 15.2069 6.56818C15.2408 6.14089 15.5829 5.80518 16 5.80518C16.4395 5.80518 16.7958 6.17807 16.7958 6.63806ZM14.2304 9.88013H17.745C17.6537 9.36422 17.4723 8.67821 17.1905 8.08843C17.0131 7.71716 16.81 7.41272 16.5845 7.20332C16.4391 7.3679 16.231 7.47095 16 7.47095C15.7182 7.47095 15.4707 7.31772 15.3292 7.08655C15.2685 7.13362 15.2093 7.18873 15.1516 7.25154C14.9102 7.51421 14.711 7.8956 14.559 8.32046C14.4081 8.74244 14.3096 9.19035 14.2605 9.57103C14.2463 9.6815 14.2363 9.78526 14.2304 9.88013Z" fill="white"/>
<path fill-rule="evenodd" clip-rule="evenodd" d="M8.09375 21V12.4944H23.906V21C23.906 22.1046 23.0106 23 21.906 23H10.0937C8.98918 23 8.09375 22.1046 8.09375 21ZM14.508 14.2165C14.132 13.8485 13.624 13.6645 12.984 13.6645C12.376 13.6645 11.876 13.8565 11.484 14.2404C11.1 14.6165 10.908 15.1165 10.908 15.7404V16.0525H12.288V15.8365C12.288 15.4925 12.348 15.2325 12.468 15.0564C12.596 14.8724 12.772 14.7805 12.996 14.7805C13.212 14.7805 13.38 14.8645 13.5 15.0325C13.62 15.2005 13.68 15.4565 13.68 15.8005C13.68 16.1765 13.608 16.4645 13.464 16.6645C13.328 16.8645 13.152 16.9645 12.936 16.9645H12.552V18.0805H12.924C13.524 18.0805 13.824 18.4764 13.824 19.2685C13.824 19.6445 13.752 19.9245 13.608 20.1085C13.464 20.2925 13.26 20.3845 12.996 20.3845C12.724 20.3845 12.516 20.2885 12.372 20.0965C12.228 19.9045 12.156 19.6245 12.156 19.2565V19.0405H10.776V19.2325C10.776 19.9365 10.972 20.4925 11.364 20.9005C11.756 21.3005 12.308 21.5005 13.02 21.5005C13.668 21.5005 14.192 21.3045 14.592 20.9125C15 20.5205 15.204 19.9925 15.204 19.3285C15.204 18.8485 15.1 18.4525 14.892 18.1405C14.692 17.8285 14.42 17.6125 14.076 17.4925V17.4325C14.388 17.2565 14.632 17.0365 14.808 16.7725C14.984 16.5085 15.072 16.1645 15.072 15.7404C15.072 15.0845 14.884 14.5765 14.508 14.2165ZM15.9593 21.3685H20.5433V20.2525H18.9953V13.8084H18.3353C18.0073 14.0164 17.6113 14.2004 17.1473 14.3604C16.6833 14.5125 16.2833 14.6085 15.9473 14.6485V15.5245H17.6633V20.2525H15.9593V21.3685Z" fill="white"/>
</svg>
