<svg width="32" height="32" viewBox="0 0 32 32" fill="none" xmlns="http://www.w3.org/2000/svg">
<circle cx="16" cy="16" r="16" fill="#8B24F4"/>
<path fill-rule="evenodd" clip-rule="evenodd" d="M9 9C7.89543 9 7 9.89543 7 11V19C7 20.1046 7.89543 21 9 21H13.3333C13.8856 21 14.3333 21.4477 14.3333 22C14.3333 22.5523 13.8856 23 13.3333 23H11.5C11.2239 23 11 23.2239 11 23.5C11 23.7761 11.2239 24 11.5 24H20.5C20.7761 24 21 23.7761 21 23.5C21 23.2239 20.7761 23 20.5 23H18.6667C18.1144 23 17.6667 22.5523 17.6667 22C17.6667 21.4477 18.1144 21 18.6667 21H23C24.1046 21 25 20.1046 25 19V11C25 9.89543 24.1046 9 23 9H9ZM9.65625 15C9.94965 15 10.1875 15.2378 10.1875 15.5312V17.4688C10.1875 17.7622 9.94965 18 9.65625 18C9.36285 18 9.125 17.7622 9.125 17.4688V15.5312C9.125 15.2378 9.36285 15 9.65625 15ZM11.7812 14C11.4878 14 11.25 14.2378 11.25 14.5312V17.4688C11.25 17.7622 11.4878 18 11.7812 18C12.0747 18 12.3125 17.7622 12.3125 17.4688V14.5312C12.3125 14.2378 12.0747 14 11.7812 14ZM13.9062 13C14.1997 13 14.4375 13.2378 14.4375 13.5312V17.4688C14.4375 17.7622 14.1997 18 13.9062 18C13.6128 18 13.375 17.7622 13.375 17.4688V13.5312C13.375 13.2378 13.6128 13 13.9062 13ZM17.4632 13.4417C17.894 12.776 18.5925 12.2806 19.4179 12.088L19.8572 14.5682L17.4632 13.4417ZM17 15C17 14.6054 17.0809 14.2287 17.228 13.8836L20.5178 15.4318L19.9121 12.011C20.0029 12.0037 20.0947 12 20.1875 12C21.9479 12 23.375 13.3431 23.375 15C23.375 16.6569 21.9479 18 20.1875 18C18.4271 18 17 16.6569 17 15Z" fill="white"/>
</svg>
