<svg width="32" height="32" viewBox="0 0 32 32" fill="none" xmlns="http://www.w3.org/2000/svg">
<circle cx="16" cy="16" r="16" fill="#F5B544"/>
<path fill-rule="evenodd" clip-rule="evenodd" d="M12.425 7.43951C11.5175 7.43951 10.7082 8.04941 10.586 8.94862C10.5626 9.12047 10.5425 9.29421 10.5257 9.46968C10.5186 9.46959 10.5116 9.46954 10.5046 9.46954H6.86137C5.97731 14.4887 8.31027 15.9527 11.2908 15.4991C11.3117 15.4991 11.3322 15.4988 11.3525 15.4984C12.1435 17.4111 13.4007 18.8012 14.8702 19.2684C14.928 19.8417 14.9777 20.5877 14.973 21.4376C14.9683 22.2781 14.6061 22.948 14.1927 23.4395H12.5244C12.2148 23.4395 11.9639 23.6905 11.9639 24C11.9639 24.3095 12.2148 24.5605 12.5244 24.5605H19.4034C19.7129 24.5605 19.9639 24.3095 19.9639 24C19.9639 23.6905 19.7129 23.4395 19.4034 23.4395H17.7356C17.3325 22.9429 16.9722 22.2692 16.9551 21.4376C16.9378 20.5949 17.002 19.8416 17.0796 19.2613C18.5403 18.7871 19.7893 17.4003 20.5763 15.4958C20.6187 15.498 20.6623 15.4991 20.7072 15.4991C23.6878 15.9527 26.0207 14.4887 25.1367 9.46954H21.4934C21.463 9.46954 21.4327 9.47039 21.4023 9.47207C21.3855 9.29579 21.3653 9.12125 21.3418 8.94862C21.2195 8.04941 20.4102 7.43951 19.5028 7.43951H12.425ZM10.4682 10.4269C10.4653 10.5417 10.4639 10.6572 10.4639 10.7731C10.4639 11.0007 10.4694 11.2262 10.4804 11.4493C10.5098 12.2897 10.6108 13.2217 10.9567 14.6673C8.84629 15.0957 8.07769 13.805 7.73054 12.8273C7.45311 12.046 7.35475 10.4268 7.9702 10.4268L8.86914 10.4268C9.57042 10.4267 10.0864 10.4267 10.4682 10.4269ZM13.6838 16.2461H18.2678V15.1301H16.7198V8.68614H16.0598C15.7318 8.89414 15.3358 9.07814 14.8718 9.23814C14.4078 9.39014 14.0078 9.48614 13.6718 9.52614V10.4021H15.3878V15.1301H13.6838V16.2461ZM21.0413 14.6673C21.5298 12.6257 21.5298 11.6084 21.5298 10.4269C21.9117 10.4267 22.4276 10.4267 23.1289 10.4268L24.0278 10.4268C24.6433 10.4268 24.5449 12.046 24.2675 12.8273C23.9204 13.805 23.1518 15.0957 21.0413 14.6673Z" fill="white"/>
</svg>
