<svg width="32" height="32" viewBox="0 0 32 32" fill="none" xmlns="http://www.w3.org/2000/svg">
<circle cx="16" cy="16" r="16" fill="#FFE03F"/>
<path d="M6.8007 11.5652C6.41677 11.7321 6.39564 12.2687 6.76526 12.4652L15.5681 17.1461C15.707 17.22 15.8726 17.2242 16.015 17.1574L24.4939 13.1829V20.5011C24.4939 20.5163 24.4953 20.5312 24.4979 20.5456C23.5787 20.8942 23.4993 23.1741 23.4993 23.1741C23.4993 23.1741 23.4993 23.8484 24.7438 23.8484C25.9883 23.8484 25.9883 23.1741 25.9883 23.1741C25.9883 23.1741 25.9089 20.8946 24.99 20.5457C24.9926 20.5313 24.9939 20.5164 24.9939 20.5011V13.0869C24.9939 13.0414 24.9915 12.9963 24.9867 12.9519L25.1725 12.8649C25.558 12.6842 25.5556 12.135 25.1686 11.9576L15.9916 7.75152C15.8625 7.69233 15.7143 7.69087 15.584 7.7475L6.8007 11.5652Z" fill="white"/>
<path d="M8.69922 15.8098V20.239C8.69922 20.4066 8.78216 20.5621 8.92667 20.6471C9.68845 21.0951 12.2945 22.4752 15.6918 22.6042C19.1361 22.735 22.2107 21.1363 23.066 20.6471C23.2146 20.5622 23.3013 20.4037 23.3013 20.2325V15.7813C23.3013 15.418 22.9261 15.176 22.5951 15.3258L15.9071 18.3535C15.7708 18.4152 15.6141 18.4126 15.4799 18.3465L9.42018 15.3613C9.08791 15.1976 8.69922 15.4394 8.69922 15.8098Z" fill="white"/>
</svg>
