<svg width="32" height="32" viewBox="0 0 32 32" fill="none" xmlns="http://www.w3.org/2000/svg">
<circle cx="16" cy="16" r="16" fill="#FF983B"/>
<path fill-rule="evenodd" clip-rule="evenodd" d="M9.1875 9C9.1875 7.89543 10.0829 7 11.1875 7H21.1875C22.2921 7 23.1875 7.89543 23.1875 9V23C23.1875 24.1046 22.2921 25 21.1875 25H11.1875C10.0829 25 9.1875 24.1046 9.1875 23V9ZM11.1875 10C11.1875 9.44772 11.1352 9 11.6875 9H13.6875C14.2398 9 14.1875 9.44772 14.1875 10V11C14.1875 11.5523 14.2398 12 13.6875 12H11.6875C11.1352 12 11.1875 11.5523 11.1875 11V10ZM15.6875 10C15.4114 10 15.1875 10.2239 15.1875 10.5C15.1875 10.7761 15.4114 11 15.6875 11H20.6875C20.9636 11 21.1875 10.7761 21.1875 10.5C21.1875 10.2239 20.9636 10 20.6875 10H15.6875ZM11.1875 14C11.1875 13.4477 11.1352 13 11.6875 13H13.6875C14.2398 13 14.1875 13.4477 14.1875 14V15C14.1875 15.5523 14.2398 16 13.6875 16H11.6875C11.1352 16 11.1875 15.5523 11.1875 15V14ZM15.6875 14C15.4114 14 15.1875 14.2239 15.1875 14.5C15.1875 14.7761 15.4114 15 15.6875 15H20.6875C20.9636 15 21.1875 14.7761 21.1875 14.5C21.1875 14.2239 20.9636 14 20.6875 14H15.6875ZM11.1875 18C11.1875 17.4477 11.1352 17 11.6875 17H13.6875C14.2398 17 14.1875 17.4477 14.1875 18V19C14.1875 19.5523 14.2398 20 13.6875 20H11.6875C11.1352 20 11.1875 19.5523 11.1875 19V18ZM11.6875 21C11.1352 21 11.1875 21.4477 11.1875 22V23C11.1875 23.5523 11.1352 24 11.6875 24H13.6875C14.2398 24 14.1875 23.5523 14.1875 23V22C14.1875 21.4477 14.2398 21 13.6875 21H11.6875ZM15.1875 18.5C15.1875 18.2239 15.4114 18 15.6875 18H20.6875C20.9636 18 21.1875 18.2239 21.1875 18.5C21.1875 18.7761 20.9636 19 20.6875 19H15.6875C15.4114 19 15.1875 18.7761 15.1875 18.5ZM15.6875 22C15.4114 22 15.1875 22.2239 15.1875 22.5C15.1875 22.7761 15.4114 23 15.6875 23H20.6875C20.9636 23 21.1875 22.7761 21.1875 22.5C21.1875 22.2239 20.9636 22 20.6875 22H15.6875Z" fill="white"/>
</svg>
